HIERARCHY
ROOT SpineBase
{
  OFFSET 0.000000 0.000000 0.000000
  CHANNELS 6 Xposition Yposition Zposition Zrotation Xrotation Yrotation
  JOINT SpineMid
  {
    OFFSET 0.000000 29.485482 0.000000
    CHANNELS 3 Zrotation Xrotation Yrotation
    JOINT SpineShoulder
    {
      OFFSET -0.003872 21.853630 -0.661292
      CHANNELS 3 Zrotation Xrotation Yrotation
      JOINT Neck
      {
        OFFSET -0.029167 7.229512 -0.528983
        CHANNELS 3 Zrotation Xrotation Yrotation
        JOINT Head
        {
          OFFSET 5.307581 12.719819 0.569154
          CHANNELS 3 Zrotation Xrotation Yrotation
          End Site
          {
            OFFSET 0 0 0
          }
        }
      }
      JOINT ShoulderLeft
      {
        OFFSET -13.777225 -3.543444 -8.648717
        CHANNELS 3 Zrotation Xrotation Yrotation
        JOINT ElbowLeft
        {
          OFFSET -6.168853 -23.479082 -0.818310
          CHANNELS 3 Zrotation Xrotation Yrotation
          JOINT WristLeft
          {
            OFFSET 0.226412 -19.485590 -4.201336
            CHANNELS 3 Zrotation Xrotation Yrotation
            JOINT HandLeft
            {
              OFFSET 0.730960 -7.096989 0.289961
              CHANNELS 3 Zrotation Xrotation Yrotation
              JOINT HandTipLeft
              {
                OFFSET 0.201195 -6.347426 -0.656486
                CHANNELS 3 Zrotation Xrotation Yrotation
                End Site
                {
                  OFFSET 0 0 0
                }
              }
              JOINT ThumbLeft
              {
                OFFSET -3.646332 0.615838 -1.305012
                CHANNELS 3 Zrotation Xrotation Yrotation
                End Site
                {
                  OFFSET 0 0 0
                }
              }
            }
          }
        }
      }
      JOINT ShoulderRight
      {
        OFFSET 14.819205 -5.924289 3.652639
        CHANNELS 3 Zrotation Xrotation Yrotation
        JOINT ElbowRight
        {
          OFFSET 1.688570 -25.642140 2.680760
          CHANNELS 3 Zrotation Xrotation Yrotation
          JOINT WristRight
          {
            OFFSET -0.968102 -21.738687 -4.773479
            CHANNELS 3 Zrotation Xrotation Yrotation
            JOINT HandRight
            {
              OFFSET -1.424491 -4.528748 -0.008473
              CHANNELS 3 Zrotation Xrotation Yrotation
              JOINT HandTipRight
              {
                OFFSET -2.041480 -7.368251 0.152655
                CHANNELS 3 Zrotation Xrotation Yrotation
                End Site
                {
                  OFFSET 0 0 0
                }
              }
              JOINT ThumbRight
              {
                OFFSET 2.248818 -1.453760 -2.064295
                CHANNELS 3 Zrotation Xrotation Yrotation
                End Site
                {
                  OFFSET 0 0 0
                }
              }
            }
          }
        }
      }
    }
  }
  JOINT HipLeft
  {
    OFFSET -6.686201 1.265612 -5.311641
    CHANNELS 3 Zrotation Xrotation Yrotation
    JOINT KneeLeft
    {
      OFFSET -8.584498 -27.851932 5.308836
      CHANNELS 3 Zrotation Xrotation Yrotation
      JOINT AnkleLeft
      {
        OFFSET -3.637302 -32.680083 6.747767
        CHANNELS 3 Zrotation Xrotation Yrotation
        JOINT FootLeft
        {
          OFFSET 3.185863 -3.857891 -11.703521
          CHANNELS 3 Zrotation Xrotation Yrotation
          End Site
          {
            OFFSET 0 0 0
          }
        }
      }
    }
  }
  JOINT HipRight
  {
    OFFSET 5.905621 0.266730 -0.956989
    CHANNELS 3 Zrotation Xrotation Yrotation
    JOINT KneeRight
    {
      OFFSET -9.073748 -30.475399 7.885281
      CHANNELS 3 Zrotation Xrotation Yrotation
      JOINT AnkleRight
      {
        OFFSET -7.362341 -29.362616 5.921954
        CHANNELS 3 Zrotation Xrotation Yrotation
        JOINT FootRight
        {
          OFFSET 5.674717 -2.894279 -14.010152
          CHANNELS 3 Zrotation Xrotation Yrotation
          End Site
          {
            OFFSET 0 0 0
          }
        }
      }
    }
  }
}
MOTION
Frames: 9
Frame Time: 0.033333
39.517136 68.849526 316.319603 -0.945943 3.821872 -10.267613 0.605170 -0.312031 10.303747 0.393656 0.403121 0.038040 23.029310 5.344064 -5.662076 0.000000 0.000000 0.000000 102.364594 40.007971 -79.622629 71.159877 18.516955 84.002925 0.907604 -0.881659 46.654700 5.981932 -23.871459 25.584182 0.000000 0.000000 0.000000 0.000000 0.000000 0.000000 135.410897 68.199320 -99.582432 -84.665298 66.641248 -71.820375 -11.961192 -3.534922 -54.335404 -2.167899 16.313335 15.230649 0.000000 0.000000 0.000000 0.000000 0.000000 0.000000 8.400874 -2.980216 12.254978 -8.499849 -1.562954 -1.556600 -4.711929 -23.750804 -14.234701 0.000000 0.000000 0.000000 7.396466 -6.793526 13.449776 -7.984093 0.997318 -1.950345 -5.693106 -17.266072 16.258331 0.000000 0.000000 0.000000
39.524080 68.668735 316.274878 -0.926396 3.833511 -9.639980 0.623695 -0.235500 9.678829 0.364845 0.412733 0.038027 24.123029 5.521212 -5.911456 0.000000 0.000000 0.000000 102.144190 39.633779 -78.754474 71.707672 17.972152 85.099538 -0.885769 1.851192 41.468978 7.747453 -25.497421 27.664407 0.000000 0.000000 0.000000 0.000000 0.000000 0.000000 135.174407 68.213625 -99.273541 -82.615290 66.266005 -72.499509 -11.172708 -0.551686 -52.006261 1.530739 10.998630 8.781090 0.000000 0.000000 0.000000 0.000000 0.000000 0.000000 8.392946 -3.039546 11.631463 -8.703174 -1.545519 -1.594858 -9.220005 -32.968329 -20.756581 0.000000 0.000000 0.000000 7.241271 -6.929653 12.809714 -7.682999 0.756146 -1.846580 -6.518942 -19.151492 17.160505 0.000000 0.000000 0.000000
39.553169 68.545968 316.225603 -0.879488 3.852629 -9.071390 0.577582 -0.207517 9.108139 0.266772 0.377417 0.028747 25.060031 5.751874 -6.145781 0.000000 0.000000 0.000000 101.948058 39.172203 -77.653798 71.926407 16.974266 85.624239 0.504485 -0.177072 44.261234 5.442594 -22.024175 19.955260 0.000000 0.000000 0.000000 0.000000 0.000000 0.000000 134.957912 68.281544 -98.963307 -81.282140 65.963894 -72.708512 -11.102688 0.487688 -51.586324 2.757116 10.954336 8.772401 0.000000 0.000000 0.000000 0.000000 0.000000 0.000000 8.373911 -3.203923 11.103991 -8.978481 -1.232926 -1.688886 -12.904069 -38.590754 -26.946768 0.000000 0.000000 0.000000 7.019728 -7.103904 12.219811 -7.750243 0.823196 -1.862646 -7.520102 -24.712958 20.806552 0.000000 0.000000 0.000000
39.616870 68.480356 316.194956 -0.785997 3.851903 -8.671409 0.538990 -0.183317 8.706055 0.209374 0.391041 0.025613 25.405825 5.824378 -6.241033 0.000000 0.000000 0.000000 101.803018 38.782739 -76.849585 71.652705 16.322777 85.264988 -0.789735 -0.153132 43.892445 5.923871 -19.778156 12.036895 0.000000 0.000000 0.000000 0.000000 0.000000 0.000000 134.327250 68.493737 -98.464275 -80.604779 65.730522 -72.444924 -11.796057 -0.085445 -52.878754 2.430166 13.835279 12.008372 0.000000 0.000000 0.000000 0.000000 0.000000 0.000000 8.272475 -3.381148 10.742803 -9.012504 -1.096078 -1.721326 -10.285748 -35.277526 -23.305576 0.000000 0.000000 0.000000 6.753816 -7.210067 11.778111 -7.654321 0.771055 -1.828470 -7.282719 -23.571339 20.136784 0.000000 0.000000 0.000000
39.645010 68.413157 316.180333 -0.746602 3.829145 -8.385870 0.514909 -0.179673 8.418829 0.142097 0.369062 0.019301 25.598892 5.956273 -6.334277 0.000000 0.000000 0.000000 101.836779 38.502961 -76.409701 71.360739 15.709015 85.030745 -0.204899 -1.094211 45.289917 4.990670 -17.686602 8.031039 0.000000 0.000000 0.000000 0.000000 0.000000 0.000000 133.873662 68.723947 -98.198537 -80.066596 65.520974 -72.058848 -13.031130 -1.687355 -55.376322 0.513143 19.039795 18.150283 0.000000 0.000000 0.000000 0.000000 0.000000 0.000000 8.303905 -3.523123 10.522174 -9.108171 -0.897238 -1.773059 -12.730520 -38.771690 -25.170509 0.000000 0.000000 0.000000 6.583560 -7.258584 11.460122 -7.491910 0.651477 -1.771497 -7.836760 -25.927170 21.565873 0.000000 0.000000 0.000000
39.654036 68.374545 316.178370 -0.743209 3.782552 -8.279234 0.490492 -0.185952 8.310100 0.080527 0.318241 0.011690 25.451533 5.831326 -6.191219 0.000000 0.000000 0.000000 101.963291 38.369384 -76.302568 71.211049 15.397310 84.892894 -0.196644 -0.150215 43.783613 3.652674 -19.644173 14.745615 0.000000 0.000000 0.000000 0.000000 0.000000 0.000000 133.299905 68.892082 -97.702074 -79.728651 65.439000 -71.489369 -14.144133 -2.965791 -57.554001 -1.513546 24.039692 24.450072 0.000000 0.000000 0.000000 0.000000 0.000000 0.000000 8.419033 -3.592216 10.483730 -9.321881 -0.635440 -1.851669 -9.141914 -34.040504 -20.530245 0.000000 0.000000 0.000000 6.513532 -7.207236 11.324114 -7.311413 0.393230 -1.684117 -7.751082 -24.433191 21.023919 0.000000 0.000000 0.000000
39.663050 68.349154 316.175748 -0.733646 3.751363 -8.312858 0.475287 -0.193703 8.342328 0.048357 0.301671 0.007891 24.824371 5.435645 -5.833811 0.000000 0.000000 0.000000 101.977713 38.281964 -76.160326 71.111576 15.112805 84.781529 0.393662 0.745338 42.439908 2.484959 -20.067714 17.302020 0.000000 0.000000 0.000000 0.000000 0.000000 0.000000 132.998219 69.033835 -97.526377 -79.477189 65.341715 -71.162536 -15.501403 -4.062529 -59.739125 -3.143024 24.593425 25.667921 0.000000 0.000000 0.000000 0.000000 0.000000 0.000000 8.406195 -3.505290 10.493915 -9.110776 -0.818168 -1.786023 -4.897037 -25.170527 -13.328820 0.000000 0.000000 0.000000 6.481333 -7.141298 11.335305 -7.171121 0.145433 -1.606168 -7.781441 -23.563019 20.498644 0.000000 0.000000 0.000000
39.677142 68.329934 316.176867 -0.721335 3.711409 -8.470018 0.468636 -0.212731 8.498382 0.037158 0.281989 0.006474 23.801250 4.975613 -5.405407 0.000000 0.000000 0.000000 102.016174 38.232124 -76.164415 70.860026 14.823634 84.484452 1.020753 0.261371 43.249349 1.081322 -21.458765 22.879568 0.000000 0.000000 0.000000 0.000000 0.000000 0.000000 132.600793 69.040697 -97.101376 -80.203390 65.541070 -70.606191 -16.300578 -3.554372 -60.091677 -4.207814 27.078304 29.561622 0.000000 0.000000 0.000000 0.000000 0.000000 0.000000 8.407903 -3.474223 10.656495 -9.189887 -0.739530 -1.812748 -4.929249 -25.415620 -13.046971 0.000000 0.000000 0.000000 6.465092 -7.051550 11.470574 -7.155269 0.029657 -1.577389 -5.439208 -13.890824 14.309718 0.000000 0.000000 0.000000
39.683391 68.336573 316.173116 -0.733523 3.669553 -8.620166 0.439158 -0.242593 8.645836 -0.007536 0.258218 -0.000354 23.129164 4.507493 -4.991531 0.000000 0.000000 0.000000 102.129877 38.204371 -76.188669 70.629006 14.616143 84.119918 2.064541 -0.736909 45.045049 -0.264427 -20.179035 21.798660 0.000000 0.000000 0.000000 0.000000 0.000000 0.000000 132.461199 68.962629 -96.765338 -80.325164 65.692090 -70.368266 -18.213561 -4.334463 -62.501689 -5.699277 28.063189 31.567774 0.000000 0.000000 0.000000 0.000000 0.000000 0.000000 8.483744 -3.452601 10.833223 -9.785863 -0.401685 -1.966717 -9.057228 -34.828317 -20.504040 0.000000 0.000000 0.000000 6.474147 -6.964749 11.603064 -7.075687 -0.092105 -1.537294 -5.398439 -13.430841 13.590961 0.000000 0.000000 0.000000
